<svg width="273" height="273" viewBox="0 0 273 273" xmlns="http://www.w3.org/2000/svg">
  <defs>
    <!-- Circle for text -->
    <path
  id="textCircle"
  d="
    M136.5,136.5
    m-76,0
    a76,76 0 1,1 152,0
    a76,76 0 1,1 -152,0
  "
/>
  </defs>

  <!-- Badge -->
  <path
    d="M225.356 173.647C227.939 182.917 222.406 192.5 213.087 194.898C206.576 196.574 201.64 201.893 200.456 208.512C198.761 217.984 189.618 224.218 180.181 222.335C173.587 221.019 166.832 223.67 162.894 229.12C157.257 236.919 146.314 238.568 138.629 232.777C133.259 228.731 126.023 228.188 120.11 231.389C111.648 235.97 101.073 232.708 96.6616 224.156C93.5793 218.181 87.2948 214.553 80.5788 214.871C70.9668 215.326 62.8547 207.799 62.5906 198.18C62.4061 191.459 58.3183 185.463 52.1294 182.836C43.2715 179.076 39.2286 168.775 43.1643 159.994C45.9142 153.858 44.8326 146.683 40.3965 141.63C34.0473 134.399 34.8743 123.364 42.2303 117.16C47.3699 112.825 49.5088 105.891 47.7041 99.4145C45.1211 90.1447 50.6542 80.5612 59.9735 78.1633C66.4849 76.4878 71.4207 71.1683 72.6048 64.5499C74.2997 55.0775 83.4429 48.8437 92.8797 50.7267C99.4732 52.0424 106.228 49.3912 110.167 43.9421C115.804 36.143 126.746 34.4937 134.432 40.2847C139.801 44.3309 147.038 44.8732 152.95 41.6725C161.413 37.0916 171.987 40.3534 176.399 48.9055C179.481 54.8808 185.766 58.5091 192.482 58.1909C202.094 57.7354 210.206 65.2622 210.47 74.8815C210.654 81.6024 214.742 87.5982 220.931 90.2254C229.789 93.9855 233.832 104.287 229.896 113.068C227.146 119.203 228.228 126.379 232.664 131.431C239.013 138.662 238.186 149.697 230.83 155.901C225.691 160.236 223.552 167.17 225.356 173.647Z"
    fill="#FC7EFF"
  />

  <text
    font-family="Helvetica, Arial, sans-serif"
    font-size="10"
    font-weight="600"
    letter-spacing="1.2"
    fill="#111"
    text-transform="uppercase"
  >
    <textPath href="#textCircle" startOffset="0%">
      • INVOICES MADE EASY • INVOICES MADE EASY • INVOICES MADE EASY • INVOICES MADE EASY •
    </textPath>
  </text>
</svg>